<svg xmlns="http://www.w3.org/2000/svg" viewBox="2967.2 4140.2 974.3 977.1"><path fill="currentColor" d="M3194.8 4641.2c.6-2.7 1.9-7.7 3-11 1-3.4 1-6.7.2-7.6l-9.5-8-7.8-6.6h11c12.2 0 13.8-1.2 18.6-15 1.3-3.6 3-6.7 3.6-6.7.8 0 2.7 4 4.4 9 3.6 10.8 6.5 12.7 19.4 12.7h9.6l-7.1 6-9.6 7.7c-2 1.5-1.9 3.7.4 12.5a48 48 0 0 1 2.2 11.4c-.4.3-4.5-1.8-9.2-4.8-10.5-6.7-10.5-6.7-20.3 0-9.7 6.7-10.3 6.7-9 .4m482.5 3.8c0-.8 1.2-6 2.6-11.5 3-11.1 4-9.4-10.9-21.1-5.4-4.3-5.4-4.3 4.7-4.3 12.1 0 14.8-1.9 19-13.2 1.7-4.8 3.7-8.6 4.4-8.6s2.3 3 3.6 6.8c4.7 13.4 6.5 15 17.5 15 5.5 0 9.9.8 9.9 1.8q-.1 1.6-1.4 1.9c-.7 0-4.5 2.7-8.3 6-7 6-7 6-4.1 16.6 1.5 6 2.5 11 2.3 11.3s-4.4-2-9.1-5c-9.7-6-11.6-6.4-16.7-2.9-9.9 6.7-13.6 8.7-13.5 7.2m-583.6 145.7c0-4.5 0-4.5 360.8-4.5s360.8 0 360.8 4.5 0 4.6-360.8 4.6-360.8 0-360.8-4.6m247.3-18.6c0-1.7 1.3-5.3 2.6-7.7 3.3-5.6 3.6-22.1.7-25.1-1.8-1.7-1.8-2.7 0-4.4 1.1-1.2 2.1-4.8 2.1-8.1 0-4.8.8-6 3.7-6q3.6-.1 3.7 4c0 4.1 0 4.1 1.8 0 .9-2.3 3.2-4 5.3-4q3.8-.1 3.8 4c0 4.1 0 4.1 2 0 2.4-4.8 8.7-5.4 9-.8q.1 2.9 2-2c1.3-3.6 1.1-5.7-.5-7.7-2.8-3.4-2.7-40 .1-46.4a62 62 0 0 1 8.9-14.9c2.9-3 2.5-5-.7-3.8q-2.8 1.4-2.7-3.8c0-5.6 4.6-11.5 6-7.7.6 1.2 1 0 1.1-2.6 0-3.4-1-5-3.7-5.8-2.9-.7-3.6-2-3-4.7.6-2 .4-6.5-.4-10-1.2-5.5-.8-6.6 3.8-10 5-3.6 5.3-4.8 5.3-16.3 0-10.6-.7-13-4.3-16.8-3.4-3.5-4.3-6.6-4.6-15.8-.5-11.1-.4-11.5 3.7-11 5.3.9 7.2 12 2.6 14.7-1.6.9-3 2.8-3 4.2 0 2.3 10 2.6 69.1 2.6 68 0 69.1 0 69.1-3.6 0-2-.8-3.6-1.8-3.6s-1.8-3.3-1.8-7.3c0-6 .6-7.2 3.6-7.2 3.3 0 3.7 1.1 3.7 12.4 0 10-.7 13-3.7 15.7-2.9 2.7-3.6 5.6-3.6 15.2 0 10.6.6 12.5 5.1 17.4 4.6 5 5 6.7 4.4 15.1-.6 8-1.4 9.6-4.2 9.6-5.7 0-4.7 10.5 1 12.7s6.2 7.3.7 7.3c-3.5 0-3.6.3-1.3 3.2a40 40 0 0 1 9.7 27.7c0 9.7.6 11.8 3.2 12.3q3.3.8 3.2-3.2c0-2 2.3-7.2 5-11.4s4.7-8.6 4.4-9.8c-.5-2.7 4.5-6.7 6.9-5.3a5 5 0 0 1 1.9 3.9c0 1.4 2 6 4.7 10 4.2 6.8 4.7 9.3 4.8 26.8.1 12.2-.6 21-2 23.5-1.2 2.3-1.8 5-1.2 5.9s-.1 3.6-1.6 5.9c-4 5.5-3.6 18.3.6 26.7 2 3.8 3.1 7.5 2.5 8-.6.7-52.1 1.2-114.5 1.2-106.6 0-113.2-.2-113.2-3.2m188.5-56.8c2.5-4 3.2-3.7-11.8-4.3-5-.2-5.9.4-5.9 3.9 0 3.6 1 4 7.7 4 5.8 0 8.4-.9 10-3.6m13.2-1.8c0-7-3.6-7-7.7 0-3 5.4-3 5.4 2.3 5.4 4.8 0 5.4-.6 5.4-5.4m-9.1-24.1v-14h-21.8v11.4c0 15.3 3 21.6 9.3 20.2 2.8-.5 5.5-.1 6.2 1 3 4.9 6.2-4.8 6.3-18.6m-8.3-2.1c-1.6-4 .5-8.8 3.3-8 1.3.6 2.3 2.8 2.3 5.1 0 5-4 7-5.6 2.9m-138 18.9c.6-1 3.3-1.3 5.9-.6 3.9 1 4.5.7 3.5-2-.6-1.7-.2-3.4 1.1-3.8 1.4-.6 2.5-5.3 2.9-12.4l.4-11.4-11 .1h-11v15c0 14 .7 16.2 5.8 16.8.7 0 1.8-.7 2.4-1.7m-6.3-20.9q.1-4.4 2.6-4.5 2.8.1 2.8 4.5t-2.8 4.5q-2.5 0-2.6-4.5m19.2 30.5c4-5.2 3-5.8-7.7-5-11.8 1-12 1.1-10.5 5.1 1.6 4.3 15 4.2 18.2-.1m107.1-1c-.7-2.2-1.2-4.9-1.1-5.9l1-21.6c.6-18.5 1-20.2 6.2-27.5 5-7 5.7-9.2 5.7-20.7 0-11.7.3-12.8 3.6-12.8 3.2 0 3.6-1.2 3.6-9s-.6-9.6-4.5-12.2c-4-2.6-4.5-4-4.7-15.9 0-7-.8-14.6-1.7-16.6-1.5-3.5-1.6-3.5-2.8.5-1.3 4.3-8 5.8-8.2 1.8q-.1-2.7-1 0c-1.5 3.5-7.9 2.8-8.2-.9-.2-3-.2-3-1 0-1 3.6-7.8 4.4-7.8 1q0-2.5-1.4-.4c-.8 1.1-4.5 2-8.2 2.2-5.8.3-6.9-.3-7-3.8q-.1-6-1-.1c-1.2 5.8-15 6-15.4 0-.2-4-.2-4-1 .2s-7.8 6-7.9 1.8q.1-2.4-1.3-.2c-1.9 2.8-16.8 2.9-16.8 0q0-2.4-1.5 0c-1.6 2.8-13.5 2.6-15.3 0q-1.4-2.2-1.4.2c0 4-7 2.5-8.4-1.9-1.4-4-1.4-4-2.6.5a97 97 0 0 0-1.5 17.3c-.2 11.4-.7 12.9-4.3 14.5s-4.2 3.4-4.5 11.8c-.4 10-.4 10 2.8 3.7 3-6.4 3-6.4 4 12.7s2.7 27.3 5.6 27.3q5.2 0 6.4 26c.5 10.2.8 19.7 1 21.2 0 1.5-.5 4.6-1.2 6.8-1.3 4.1-1.3 4.1 50.9 4.1s52.2 0 51-4m-60.5-121.7c.4-10 1-11.5 4.4-12q3.9-.5 4.8 2.8 1 4.8 1 0 .1-3.5 4.4-2.8c3.7.5 4.1 1.8 4.6 12l.6 11.4h-20.4zm6.8.5c0-2.9-.8-5.8-1.7-6.5-1.2-.6-1.9 1.6-1.9 5.4 0 3.6.8 6.5 1.9 6.5s1.7-2.4 1.7-5.4m6.7-3.2c-.4-1.8-.8-.7-.9 2.2s.4 4.5.9 3.2.6-3.6 0-5.4m-12.1 94.3c0-11.2 2-14.8 8.2-14.8s8.1 3.6 8.1 14.8c0 10.7 0 10.7-8.1 10.7s-8.2 0-8.2-10.7m14.5 2c0-9.4-2-13.2-6.6-13.2-4 0-4.2.7-4.2 9 0 9 0 9.2 5.4 9.2 4.7 0 5.4-.7 5.4-5m-18.4-27.5-.5-19.6c-.2-18.4-.1-18.6 4.8-21.5 2.8-1.7 5-4.6 5-6.5 0-5 4.9-4.4 6.2.6.5 2.4 3 5.3 5.4 6.6 4.2 2.3 4.4 2.9 3.8 20.8l-.7 19.6c-.1.5-5.5 1-12 1s-11.8-.5-12-1m20.2-11.2c0-1-3.6-1.7-8.1-1.7s-8.2.7-8.2 1.7 3.7 1.9 8.2 1.9 8.1-.9 8.1-1.9m-10.9-8.3c0-3.2-3.9-2.7-5 .8-.4 1.1.6 2.1 2.2 2.1 1.5 0 2.8-1.3 2.8-2.9m10.5.8c-1-3.5-5-4-5-.8a3 3 0 0 0 3 3c1.4 0 2.4-1 2-2.2m-11.5-12.5c-1.6-2.9-4.4-2-3.2 1q1 2.4 2.6 1.6c1-.5 1.2-1.7.6-2.6m9.3-7.2c-4-4.4-4.4-4.4-10 0-4.6 3.6-4.6 3.6 4.3 3.6s8.9 0 5.6-3.6m80.8 79q0-4.3-2.7-4.4-2.7.1-2.7 4.4 0 4.5 2.7 4.6 2.6-.1 2.7-4.6m7.3-14.6q-.2-2.4-1.8-1.7c-1 .6-1.9 2-1.9 2.8 0 1 .9 1.7 1.9 1.7q1.6-.2 1.8-2.8m5.4-1.2q.1-4.9-1.8-1.4-3.3 5.3 0 5.4c1 0 1.8-1.8 1.8-4m7.3 2.6c0-.6-.9-2.5-1.8-4-1.5-2.2-1.7-2-1.8 1.4 0 2.2.8 4 1.8 4q1.7-.1 1.8-1.4m-1.8-12c0-1.7-5.5-2.6-6.4-1-.6 1 .6 1.7 2.7 1.7 2 0 3.7-.3 3.7-.7m-172.7-8q.2-5.5-1.8-2.2c-2.3 3.5-2.3 7.3 0 7.3 1 0 1.8-2.3 1.8-5m7.3 2.8a11 11 0 0 0-1.9-5q-1.8-3.4-1.7 2.3c0 2.7.7 5 1.7 5s1.9-1 1.9-2.3m4.7-2.4c-.6-1.7-1.6-2.7-2-2.2-.6.5-.4 2.3.2 4s1.6 2.7 2.1 2.1c.5-.4.4-2.3-.3-4m115-3.5q0-1.4-1.6 1a11 11 0 0 0-1.6 5.4c0 2.8 3.1-3 3.3-6.4m5.7 3.5c0-2.6-.8-4.2-1.8-3.5-1 .6-1.8 2.7-1.8 4.7 0 1.9.8 3.5 1.8 3.5s1.8-2 1.8-4.7m7.3 2.4a12 12 0 0 0-1.9-5q-1.8-3.4-1.7 2.3c-.1 2.7.7 5 1.7 5s1.9-1 1.9-2.3m-135.5-12.3q-1.1-1.6-2.8-1.7-1.6.1-1.7 1.7c0 1 1.3 1.8 2.8 1.8q2.6 0 1.7-1.8m131.8-.7c0-2-3.4-2.8-4.5-1.1q-.9 1.7 1.7 1.8c1.6 0 2.8-.3 2.8-.7m-133.5-12c.6-1-.3-1.8-1.8-1.8s-2.8.8-2.8 1.8q.2 1.7 1.7 1.8 1.7-.1 2.9-1.8m135.8.6a7 7 0 0 0-4.6 0c-1.2.5-.1 1 2.3 1q4-.1 2.3-1m-1-96.5c-.5-1.7-.8-.3-.8 3.2s.3 5 .8 3.2.5-4.6 0-6.4m-138.1.1q-.9-2.5-1 2.2c0 3 .4 4.4.9 3.2s.5-3.6 0-5.4m146.9 201.8q-1-4-4.7-4.2c-5 0-4.8 10.4.6 19.4l4 7 .6-9c.3-5 0-10.9-.5-13.2m29.8 19.9a22 22 0 0 0-2.6-5.9c-3.6-6.3-3.3-17.2 1-29.8 2-5.9 3.5-11 3.5-11.4 0-.3-7.5-.6-16.6-.6-17.9 0-21.4 1.7-21.4 10.3-.1 2.2-1 4.5-2 5.1-3.2 2-1.9 4.6 2.6 4.6q10.1.1 10.2 18.5v10.6h12.7c7 0 12.7-.7 12.6-1.4m-41.7-21.5a20 20 0 0 0-5-14.5c-5-6.3-5-6.3-61.3-6.3-56.4 0-56.4 0-61.4 6.3a20 20 0 0 0-5 14.5v8.3h132.7zM3385 4736c.7-.6.3-2.6-.7-4.6-1.5-2.8-2.4-3-4.5-1.3s-3.4 1.5-6-1c-3-2.6-3.5-2.6-4.5-.1-1.5 4.1-6.8 3.4-8-1.2-1-4-1-4-2.5 0-1.9 5.1-5 5-6.9 0-1.3-3.8-1.5-3.7-2.3 1.8-.5 3.2-.4 6.2 0 6.7 1.4 1.3 34 1.1 35.4-.3m140.6-7c2-6.3 2-6.3-5-6.3s-7 0-3.2 6.3c2 3.5 4.3 6.4 5 6.4.6 0 2-2.9 3.2-6.4m-131.4 0c4-6 4-6.3-3.3-6.3q-10.3 0-3.7 5.4c1.5 1.2 2.2 3 1.7 3.9-2.4 3.9 2.7 1.1 5.3-3m90-5.8c-14.8-.4-39.3-.4-54.6 0-15.3.2-3.3.5 26.7.5s42.5-.3 27.8-.5m74.5-5.5c1.6-3 2-3 5.6.3 3.8 3.5 3.8 3.5 2.7-2.7-.5-3.4-2-8-3-10.2-2.1-4.5-.6-10.5 2.2-8.8 1 .7 1.9-.2 1.9-1.7 0-2.2-2.3-2.8-10.9-2.8h-10.8l.1 14.1c.2 10 .6 12.8 1.8 9.8 1.8-4.8 5.2-3.7 5.2 1.6 0 4.4 2.9 4.6 5.2.4m-176.2 47.6q3.8-6.5 3.8-16v-9.4l-18.2-.5-18.1-.5v9.9a53 53 0 0 1-2.8 16.4c-2.7 6.6-2.7 6.6 14.4 6.6 17 0 17 0 20.9-6.5m144.1 1c-3.1-5.5-3.1-5.5-70.4-5.5s-67.3 0-70.5 5.5-3.2 5.5 70.4 5.5 73.7 0 70.5-5.5m-361 150.7c-1.7-2.7.5-4.3 9.4-6.8a84 84 0 0 0 19.1-10c24.2-16.6 41.4-16.1 64.7 1.5 16.2 12.4 32.7 12.3 50.3-.4 12.7-9.1 22.5-13.1 32.1-13.2 11.3 0 18.4 2.6 34 12.8 21 13.9 32.3 13.7 53.4-.7 24.2-16.5 38.8-16.5 62.9-.1 21.6 14.7 32.7 15 52.6 1.3 25.6-17.6 41.2-17.8 65.2-1 19.9 13.8 35.3 14.2 52.2 1.3a54 54 0 0 1 29.5-13.1c12.2-1.2 22 2 37.6 12.7 6.7 4.6 13.9 8.8 16 9.5 3 1 3.4 1.7 1.7 3.8-3.6 4.3-7.9 3-23.1-7.2-22.2-14.7-34-15-53.5-1.1-24.1 17-40.5 17.2-64.8.6-20-13.6-33.3-14.5-49-3.2-27.8 19.9-46.2 20.4-70.4 1.9-16.4-12.5-33-12.4-50.7.1-13 9.4-22.5 13.3-32.8 13.2-12-.1-19.8-3-33.2-12.5-20.5-14.3-35.4-13.8-55 1.9-17.4 14-39.1 14.2-58.4.6-23.3-16.5-35.7-16.9-57-1.8-15.2 10.7-29.6 15-32.8 10m495.8 93c-3-4.8-2.9-5.1 1.4-7.4 2.8-1.5 4.4-1.2 7.3 1.5 3.7 3.4 3.7 3.4-.8 6.4-5.7 3.7-5.2 3.8-7.9-.6m81.7-6.5c-2-2.5-4.5-4.5-5.5-4.5-3.2 0-4.5-4-2-5.6 2-1.2 2.1-2 .4-3.8s-1.6-2.9.8-5.5c5.5-6.2 13.5-1.6 9.7 5.5-2.7 5.2-.4 9.4 5.8 10.6 5.5 1.2 5.5 1.2 1.2 4.5-5.6 4.3-6.1 4.2-10.4-1.2m-62.2-5.5c-1.3-2.4-2-4.8-1.6-5.2l9-5.7c4.4-2.7 14.4-9.9 22.1-15.6a99 99 0 0 1 15.7-10.7c3.6 0 3.9 8.1.3 11.8-2 2-3.6 2.6-3.6 1.3 0-1.2-.9-2.2-1.9-2.2s-1.8 1.5-1.8 3.3-2.6 5.2-5.9 7.6a498 498 0 0 1-27.9 18.7c-1 .7-3-.8-4.3-3.3zm-419.9-18q-24.4-15.6-34.6-15.6-6.5 0-9.8-3.6c-3.3-3.6-3.2-3.6 7.7-3.6 13.8 0 18.1 1.6 33.8 12.3 12.1 8.2 13 8.6 25.5 8.6 11.7 0 13.7-.6 21-6q38.4-27.6 68.2-4.8c3.2 2.4 3.3 2.9.6 5.5s-3.5 2.4-10.7-2.3c-6.7-4.2-10-5-20-5-10.5-.2-13 .5-21.8 6.1-19.8 12.6-25.2 14.6-38 14.6-10.6 0-13.2-.7-21.9-6.3m354.3 1.2c-4.7-2.7-12-7.3-16.2-10.1-14-9.4-32.3-8.4-47.6 2.8-2.6 1.9-3.7 1.7-6-.6-2.7-2.7-2.5-3.3 2.5-6.9a47 47 0 0 1 30.2-9.2c13 0 21.9 3.6 37 15 7.2 5.3 9.2 5.9 20.1 5.9 10.8 0 13.4-.8 21.2-5.9 18.4-11.9 26.1-15.3 34.1-14.7 7.6.6 7.6.6-3.3 5.9-6 3-14.6 7.9-19 11.1-14 10-19 11.7-32.2 11.7-10.2 0-13.9-1-20.8-5m144.5-3.3q1.3-3-2-1.8c-1.8.5-4.3.3-5.5-.5-1.5-.9 6.1-9.7 23.7-27.6a435 435 0 0 0 110.5-179.8c3.8-11.6 7.7-20.8 8.7-20.6.9.3 1.2-1.2.7-3.2-.7-2.9 0-3.6 3.8-3.6 6 0 6.4-4.4.7-9.1-3.2-2.7-3.5-3.5-1.1-3.5a8 8 0 0 1 5.2 2.7q2.4 2.9 4.3 1c1-1 3.4-2 5.2-2s3.8-1.2 4.3-2.6c.7-1.6 2.4-2.8 3.7-2.8 3.4 0 2.3 6.3-5.9 34.9a464 464 0 0 1-115.4 200.6c-14.3 14.7-14.3 14.7-23.4 14.3-7.4-.3-9.5.2-11 3-2.3 4.3-8.1 4.8-6.5.6m37.5-20.7q0-3.7-3.6-3.7c-3.5 0-5 3.6-2.5 6.1 2.6 2.5 6 1.1 6-2.4m-527 5.2c-3.3-1-11.3-5.5-17.8-9.9-18.3-12.5-31.4-14.4-45.2-6.4-4.5 2.7-6.2 2.8-8.6 1-4.3-3-4-3.3 5.6-8.2a39 39 0 0 1 21.3-4.4c13.8.1 19.5 2.2 33.2 12.8a40 40 0 0 0 32.7 8.2c4-1 12.8-5.6 19.7-10.1 24.8-16.3 39.4-16 64.8 1.3 19.4 13.4 32.7 13 52-1.1 20.4-15 39.8-16 59.1-3.1 4 2.5 9.3 6.1 11.9 7.9 13.8 9.3 28 8.1 45.1-3.6 25.5-17.4 40.2-17.7 64.9-1.4 14.2 9.3 23.8 12.5 32.7 10.8 5.5-1 9.8-3.4 31.7-16.7a44 44 0 0 1 32.3-4.3c10.6 2.4 13 4.4 10 8.2-1.8 2-3.7 2-11.3-.3-12.2-3.5-22.5-1-37.1 9.4-22.5 16.1-38.5 16-62.4-.2-21-14.3-33-14.5-52.7-1-15.5 10.6-21.9 13.1-32.5 13-11.4-.1-19.4-3-32.5-12-20.8-14.4-33-14.7-52.6-1.3-26 17.9-41 18-66.4.4-19.8-13.5-32-13.3-53 1-16.7 11.5-29.5 14.3-44.8 9.9m459.7-4.4c0-.5 10-10.9 22.4-23.1a593 593 0 0 0 34.6-37.7 435 435 0 0 0 87.7-189c2.5-13.6 3.6-16.4 6.3-16.4a7 7 0 0 0 5.2-3.1c3-5 2.3 6-.7 14.8-1.5 4-2.2 7.9-1.6 8.7.6 1-.4 7.5-2.2 14.7a438 438 0 0 1-120.3 214.3c-16.3 15.9-18.9 17.8-24.7 17.8-3.7 0-6.7-.5-6.7-1m-455-17.4c-6-.9-13-4.2-22.3-10.5-21.6-14.6-33.5-14.7-54-.7-11.4 7.9-12.4 8.2-15.3 5.4-1.7-1.6-2.6-3.2-2.2-3.6 18-13.3 28-18.4 38-19.1 16.1-1.2 22.1.6 37.6 11 13.7 9.3 14.3 9.5 27.2 9.5 12 0 13.8-.5 21-5.9 25-18.8 48.2-20.3 68.5-4.3 19.6 15.3 34.4 15.3 55.6 0a46 46 0 0 1 31.3-10.7c12.8 0 19.8 2.8 35.5 14.1 15.7 11.2 32.7 10.4 49.5-2.5a46 46 0 0 1 31.8-11.6c13.5 0 18 1.7 33.6 12.4 12 8.2 13 8.5 25.6 8.5s13.7-.3 25.7-8.5c15.7-10.8 20-12.4 34-12.3 12 0 21.8 3.6 31.2 11.4 4.6 3.8 5 5 3 7.3-2.1 2.6-3.4 2.2-12-3.5-16.8-11.2-32.8-10.4-49.5 2.4a47 47 0 0 1-32.4 12c-11.4 0-18.2-2.8-38-15.7-7.9-5-10.5-5.8-21.2-5.8-11.5 0-13 .5-24.7 8.4-18 12.3-20.1 13-33.2 13-12.8 0-18-1.9-33.3-12.4-18.3-12.6-33.6-13-50.4-1.1-16.4 11.5-21.6 13.5-34.6 13.5s-15.3-.7-33.3-13c-11.7-7.9-13.2-8.4-24.7-8.4-10.7 0-13.3.7-21.2 5.8-22.4 14.6-31 17.4-46.8 15m67.8-78.2c0-2.3 5-9 12-16.5 10.2-10.8 11.8-13.5 11.4-18.4s-1.5-5.8-5.6-6.3c-3.9-.5-5.5.5-7 4-1.7 3.5-3.6 4.7-7.4 4.7-5.6 0-6-1-3.4-8 3.6-9.5 21-13.4 29.6-6.6 9.9 7.8 7.9 17.8-6.4 32.4l-9.3 9.5h12.2c11.7 0 12.2.2 12.2 4.5 0 4.6 0 4.6-19.1 4.6-18.3 0-19.2-.2-19.2-3.9m49.3-.8c-3-2.6-5.6-5.9-5.6-7.3 0-3.5 9.8-3.3 12.8.2 3 3.6 10.8 2.8 13.4-1.4 2.9-4.7-.8-9.4-7.7-10-4.8-.6-5.8-1.4-5.8-5.1s1-4.4 5.2-4.4c7 0 10.3-4 7.6-9-2.4-4.4-10.6-5-12.2-1-1.1 3-13.3 3.8-13.3.7 0-1 2.4-4.3 5.3-7.2 7.7-7.7 20-7.6 27.8.2 4.6 4.6 5.4 6.4 4.4 11.4-.6 3.2-2.4 6.7-3.9 7.8-2.3 1.7-2.2 2.4 1 5.3 5.1 4.7 4.8 14.4-.9 20-6.5 6.5-20.3 6.3-28.1-.2m76.2-16.2c0-20.8 0-20.8-5.7-19.7-5 1-5.5.8-5-3.2.7-4.4 7-7.6 18-9.2 4.5-.6 4.5-.6 5 26.1.5 26.9.5 26.9-6 26.9-6.3 0-6.3 0-6.3-21m30.3 17.2c-6.3-5-9.1-16-7.6-29.4 1.7-14.2 6.3-19.6 17.7-21 7.6-.8 9-.3 13.8 4.3 9.3 9.4 9.8 33.8.8 44.5-5.6 6.7-17.2 7.4-24.7 1.6m18-9.5c.4-2.3.7-9.8.4-16.6q-.8-20.7-10.1-14.5c-3.9 2.4-5.6 28.4-2.1 32.6 3.4 4.1 10.5 3.2 11.7-1.5m48 9c0-2.6 3.7-7.7 10.1-14 12.6-12.4 16.2-18.7 13.5-23.6-3-5.8-10.7-4.4-13.2 2.3q-1.2 3.5-6.3 2.8c-6.5-.8-6-6 1.5-12.8 7.7-7.1 18.2-7 25.5.3 8.6 8.7 7 15-8 30.6l-9.3 9.5h12.2c11.8 0 12.2.2 12.2 4.5 0 4.6 0 4.6-19 4.6-18.8 0-19.2 0-19.2-4.2m50.8-1.1c-5-5-5.3-6.4-5.3-18.7 0-7.3 1-15.3 2.3-17.7 3.1-6.1 13.4-12.9 19.7-12.9 6 0 12.5 5.7 12.5 11 0 4.3-6.4 5-8 .9-2.3-6-15.6 0-15.6 7.2 0 2.2 1 2.3 4.9.8 14.2-5.4 26.6 9.1 20.5 23.9-5 12-21.4 15-31 5.5m20.2-7.6c4.6-8.6-4.8-18.5-12-12.5-3.2 2.7-3.5 11-.4 14.1 3.4 3.4 10.2 2.6 12.4-1.6m-385.4 9c0-2.4 3.7-7.6 9.6-13.3q25-23.9 11.2-27.5c-4.8-1.2-9.9 1.7-9.9 5.8q-.1 2.5-5.5 2.5c-6.9 0-7.3-4.9-1-12.1 3.8-4.5 5.6-5.1 14.7-5.1 12.4 0 17.2 4.3 17.2 15.5 0 6-1.5 8.6-10.2 18l-10.1 11h11c10.7 0 11.1.2 11.1 4.5 0 4.6 0 4.6-19 4.6-18.4 0-19.1-.2-19.1-4m51.8-.8c-7.8-8.3-8.5-32.8-1.4-42.3s23-10 28.9-1c7.2 10.8 6.5 35.3-1.2 43.4-6.1 6.7-20.1 6.5-26.3-.1m18.7-6.6c1.3-1.3 2.1-7.7 2.1-16 0-14.7-1.6-18.2-8.3-18.2-5 0-6.2 3-6.2 18.2 0 6.9.5 13.7 1.1 15.3 1.3 3.4 8.2 3.8 11.3.7m111.3-11.4c0-4.4.4-4.6 10.9-4.6s10.8.2 10.8 4.6-.4 4.5-10.8 4.5-11-.2-11-4.5m104.7 3.3c-.7-.7-1.2-2.7-1.2-4.6 0-2.8 1.5-3.3 11-3.3 10.4 0 10.8.2 10.8 4.6 0 4.2-.5 4.5-9.6 4.5-5.4 0-10.3-.6-11-1.2m-139.8-286.1q-3.2-1.9-3.2-9c0-6.1.6-7.2 3.8-7.2 4.2 0 4.2-1.5.4-39-1.3-13.2-1.2-14.9 2.3-19.1 2-2.6 4.4-6.2 5-8 1.3-3.4 4.9-2.5 4.9 1.3 0 1.3 2 4.2 4.4 6.5 3.5 3.3 4.2 5.3 3.4 10.3-1 6.6 2 8.8 3.6 2.5.5-2 2.2-3.6 3.8-3.6s3.7 1.6 4.8 3.6 2.6 3.7 3.5 3.7 2-1.7 2.5-3.7c.5-2.2 2.4-3.6 4.9-3.6q3.8.1 5 3.6c.4 2 2 3.7 3.2 3.7s2.7-1.7 3.2-3.7 2.3-3.6 3.8-3.6c1.6 0 4 1.6 5.2 3.6s2.8 3.7 3.5 3.7 1.8-1.7 2.5-3.7 2.7-3.6 4.8-3.6 4.1 1.5 4.6 3.6c.5 2 1.6 3.7 2.6 3.7.8 0 2.3-1.7 3.4-3.7 2.6-4.7 6.2-4.6 9.7.5 2.8 4 2.8 4 3-2.5 0-3.6 1.6-8.5 3.4-10.9a36 36 0 0 0 4.6-8c1.1-3 1.9-2.4 6 4.3 3.7 6.3 4.7 10.8 5.3 22.2.3 8-.1 14.8-1.2 15.4-.9.5-1.7 6.3-1.7 12.7 0 10.6.3 11.8 3.6 11.8 3 0 3.7 1.2 3.7 7.2 0 8.6-4.7 12.4-11.1 9-3.1-1.6-3.6-3.2-2.7-7.7 3.5-18.9 3.6-18.3-2.4-22.7q-5.6-4.1-5.6-8.6c0-4.5 0-4.5-41-4.5-40.8 0-40.8 0-40.8 5.4 0 4-1.4 6-5.5 8.5-4 2.4-5.4 4.6-5.4 8.3 0 2.8.8 5 1.8 5s1.8 2.5 1.8 5.5.8 5.5 1.8 5.5 1.8-2.5 1.8-5.5c0-5.1.5-5.4 7.1-5.4 6.8 0 7 .2 7.8 6.5.7 5.3 0 7-3.4 9.3-3.8 2.4-4.6 2.4-8.4 0-3.6-2.3-4.9-2.4-8.6-.2-5.4 3-5.5 3-9.5.6m7.8-9c0-4.2-.8-5.4-3.6-5.4-2.9 0-3.7 1.2-3.7 5.4s.8 5.4 3.7 5.4c2.8 0 3.6-1 3.6-5.4m18.1 0c0-4.2-.8-5.4-3.6-5.4s-3.6 1.2-3.6 5.4.8 5.4 3.6 5.4 3.6-1 3.6-5.4m92.7-.1c0-7.4-6-6.8-7 .6-.3 4 .2 5 3.3 5s3.7-1.2 3.7-5.6m-103.5-28.4c2.6-6.7 2.3-7.3-3.8-6.3q-5.9.6-4.5 3.4c.5 1.4 1 4.2 1 6 0 4.8 5.2 2.6 7.3-3.1m97.5-5.3-4.4-1.5c-3.5-1-4-.6-4 3.3 0 2.5 1.3 6 3 7.6 3 3 3.3 2.8 4.5-3 .7-3.4 1-6.3.9-6.4m2.4-9.7c0-5.7-.6-7-2.7-6.2-1.5.6-2.8.1-2.8-1 0-1 1.3-2 2.8-2s2.7-1.2 2.7-2.8q.1-2.7-6.4-2.6c-6.3 0-6.3 0-6.3 9 0 7.9.5 9.1 3.5 9.1 2 0 4 .9 4.7 1.9 2.4 4 4.5 1.4 4.5-5.4m-101.5 3c1.6-1.3 3.3-5.6 3.6-9.5.6-7.1.6-7.2-6.1-7.8-6.8-.5-6.8-.5-6.8 9.5 0 10.9 2.5 13 9.3 7.7m-7.6-10.4c0-1 .9-1.8 1.9-1.8q1.7.1 1.8 1.8c0 1-.9 1.9-1.8 1.9s-1.9-.9-1.9-1.9m92.7 8.2c0-1.5-1.2-2.7-2.7-2.7a2.6 2.6 0 0 1-2.7-2.6c0-4.4-3.8-5.3-4.9-1.3-1.3 5.2-9.6 5.4-11 .3-.4-2-1.6-3.7-2.5-3.7s-1.6 1.7-1.6 3.7c0 2.6-1.2 3.6-4.7 3.6q-4.7 0-5.7-3.6c-.5-2-1.7-3.7-2.7-3.7s-2.2 1.7-2.7 3.7q-1 3.5-5.5 3.6-4.5 0-5.5-3.6c-.4-2-1.5-3.7-2.2-3.7s-1.9 1.7-2.4 3.7q-1 3.5-5.4 3.6-4.6 0-5.5-3.6c-.5-2-1.9-3.7-3-3.7-1 0-2 1.7-2 3.7s-1.1 3.6-2.7 3.6a2.7 2.7 0 0 0-2.7 2.7c0 2.4 5.6 2.7 39 2.7 33.6 0 39.1-.3 39.1-2.7m-84.4-21.9q-6-4.4-7.8.7-.6 2.1 5.3 2c5.7 0 5.9-.1 2.5-2.7m98 1c-.5-1-2.2-1.8-3.6-1.8a5 5 0 0 0-3.6 1.8c-.6 1 1 1.8 3.6 1.8q4.4 0 3.7-1.8m-75 72.2c-2.4-1.2-3.7-3-3.1-4.5.5-1.4 1-4.5 1-7 0-3.8.8-4.3 6.3-4.3s6.3.5 6.3 4.3c0 2.5.5 5.6 1 7 1.5 3.8-6.3 6.8-11.5 4.5m7-8.6c0-5.9-4.8-7.7-6.7-2.7-1.4 3.9.5 8.1 3.8 8.1q3 0 2.9-5.4m10.7 8.6c-2-1.6-2.7-4.2-2.1-9 .7-6.4 1.3-6.8 6.8-6.8s6 .4 6.8 6.8c.7 6.6-2 11.2-6.8 11.2-1 0-3.2-1-4.7-2.2m7.4-8.6q0-5.4-2.7-5.4t-2.8 5.4 2.8 5.4 2.7-5.4m11.7 8.4c-3-2-3.5-4-3-9.1.7-6 1.2-6.5 6.7-6.5s6 .4 6.8 6.8c.6 4.8 0 7.4-2 9-3.8 2.9-4.2 2.8-8.5-.2m7.4-8.4q-.1-4.4-3.2-5c-2.5-.5-3.1.5-3.1 5s.6 5.6 3 5.1q3.2-.6 3.3-5m11.2 8.4c-2.3-1.8-3.1-4.4-2.7-8.7.6-5.6 1.1-6 7.4-6.6 6.8-.6 6.8-.6 6.8 6.8 0 5.3-1 7.8-3.5 9.1-4.3 2.3-4 2.4-8-.6m7.9-8.4c0-5.9-4.7-7.7-6.7-2.7-1.4 3.9.6 8.1 4 8.1q2.7 0 2.7-5.4m-403.6-88.1c0-4.6 0-4.6 360.8-4.6s360.8 0 360.8 4.6 0 4.5-360.8 4.5-360.8 0-360.8-4.5m81.8-46.2c0-14.2.7-20 2.3-20.6 5.7-2.1 6.8.7 6.8 17 0 16.1 0 16.1 8.2 16.1 7 0 8.2.6 8.2 3.7 0 3.3-1.2 3.6-12.7 3.6h-12.8zm32.2 18.6c-.7-.6-1.2-9.6-1.2-20 0-18.8 0-18.8 4.5-18.8s4.5 0 4.5 20c0 18.2-.3 20-3.3 20-1.9 0-3.8-.6-4.5-1.2m19.9-2.6c-2.6-2-4.8-4.9-4.8-6.3 0-3.6 8.4-3.3 9.8.3 1.6 4.2 11 2.7 11-1.8 0-2.5-2.1-4.3-7.7-6.1-14.6-4.9-16.6-17.8-3.6-22.1 9.3-3 21.4 2.4 21.4 9.7 0 2.4-8.8.8-9.7-1.6-1.4-3.6-7.3-3.6-10.2-.2-2.2 2.7-1.2 3.7 11.6 10.2 6.8 3.4 9.1 7.3 7.7 13-2.2 8.6-17.1 11.5-25.5 5m32.8 2.6c-.7-.6-1.2-9.6-1.2-20v-18.8h11.8c9.4 0 12.5.8 15.4 3.7 4.4 4.3 4.5 7 1 12.1-2.4 3.4-2.4 4 0 4.9q2.5 1.2 2.7 7.4c0 5.3-1 6.9-5.4 9.1-5.4 2.8-22 3.9-24.3 1.6m19.7-11.5c0-3.8-1-4.6-6-5-5.4-.6-5.8-.3-5.8 5s.4 5.7 5.8 5.1c5-.5 6-1.3 6-5m-1-13.6c3-3.7-.5-8.2-6.6-8.2-3.6 0-4.2 1-4.2 5.4 0 4.6.6 5.5 4.2 5.5 2.5 0 5.4-1.2 6.7-2.7m25.7 23.8c-13.6-7.5-11.7-32.8 2.8-37.6 12.9-4.2 22.5 4.8 22.5 21 0 14.9-13 23.4-25.3 16.6m14-6.9c3.2-3.3 2.7-18.8-.7-22.3-6.3-6.2-13.5-.4-13.5 11 0 11.2 8 17.5 14.2 11.3m14.9 8c-.2-4 14-39.1 16-40 3.9-1.4 6.7 3 13.7 21.4 7.9 20.4 7.8 20 2.3 20-3.1 0-4.7-1.2-5.5-4.5-1-3.9-2.2-4.6-8-4.6s-7.4.9-9 4.6c-2 4.1-9.5 6.6-9.5 3.2m21.7-17.2c0-1.3-1-4-2.3-6.3-2.2-4-2.3-3.9-4.2 2.3-1.9 6-1.7 6.3 2.3 6.3 2.4 0 4.3-1 4.2-2.3m63.7 17.4c0-3 13.6-38 15.2-39.1 4-2.7 8 2.7 14.4 19.8 3.8 9.7 6.8 18.4 6.7 19.2 0 3.4-7.5.9-9.3-3.2-1.7-3.7-3.4-4.6-9-4.6-6 0-7.2.7-8.1 4.6-.9 3.3-2.4 4.5-5.5 4.5-2.5 0-4.4-.6-4.4-1.2m21-20.1c-1.4-5.4-2.4-7-3.6-5.8-.4.5-1.3 3-2 5.8-1.1 4.3-.7 5 2.8 5s3.8-.7 2.7-5m20.7 20.6c-.5-.5-.5-9.5-.2-20l.6-19.3h13.5c10.6 0 13.5.6 13.5 2.7 0 1.9-2.7 2.7-9.5 3.2-8.4.4-9.7 1-10.2 4.6-.5 3.7.2 4 7.8 4 7 0 8.3.6 8.3 3.8 0 3-1.2 3.5-8.3 3.5-7.8 0-8.1.3-8.1 5.5 0 5.4.1 5.4 10 5.4 8.8 0 10 .5 10 3.7s-1.2 3.6-13.4 3.6c-7.3 0-13.6-.3-14-.7m32.8-19.2v-20h11.8c9.4 0 12.6.7 15.5 3.6a11.4 11.4 0 0 1 0 16.3c-3.6 3.7-3.6 3.7 0 9.5 4.8 7.9 4.6 11-.4 10.2-2.6-.4-5.5-3.1-7.7-7.4-5-9.1-9.7-9.1-10.4 0-.5 5.5-1.4 7-4.7 7.4-4 .6-4 .3-4-19.6zm19-3c4-1.5 3.6-7.5-.7-9.8-6.6-3.5-9.2-2.3-9.2 4.5 0 6.6 2.7 8 9.8 5.3zm23.8 19c-6.4-5.6-8.4-19.7-4-28.2a16.9 16.9 0 0 1 29.6-.1c3.9 7.4 2.6 22.1-2.4 27a18 18 0 0 1-23.2 1.2m17.2-6.9c2.8-5.3 2.2-17.6-1-20.9-6.4-6.3-13.5-.9-13.5 10.2q0 14.2 8.1 14.2c2.6 0 5.3-1.5 6.4-3.5m17.8-9.2-.5-20h12.2c9.9 0 13 .8 16 3.7 8.7 8.8 1 21.8-13 21.8-7 0-7 0-7 7.2 0 6-.6 7.3-3.6 7.3-3.2 0-3.5-1.6-4-20m21.6-4.7c1.8-4.7-2-8.9-7.7-8.9-4.7 0-5.4.7-6 5.9-.5 5.7-.2 6 6 6q6.6 0 7.7-3m23 22.5c-6.2-3-10.2-13.1-8.8-22.2 2-13.3 13.5-20.3 24.3-14.8 7.4 3.8 9.4 7.9 9.4 19.3 0 15.5-12 24-25 17.7m15.3-10.5c2.6-5 1.9-15.2-1.5-19.3-5.3-6.4-14.4.5-14.4 11 0 12.4 10.8 18 16 8.3m16.8-7.2v-20h11.9c17.5 0 23.8 7.8 15.2 18.8-3.8 4.8-3.8 4.8 0 11.3 4.9 8.2 4.8 9.8-.4 9.8-3.3 0-5.2-1.8-7.6-7.3-4.4-9.6-9.5-9.9-10.4-.4-.4 5.5-1.4 7-4.6 7.4-4 .6-4 .3-4-19.6m20.2-4.8c3.2-3.8 0-8.7-6.3-9.5-4.4-.5-4.8 0-4.8 6 0 5.5.6 6.5 4.4 6.5a10 10 0 0 0 6.7-3m26.5 23.5c-.7-.6-1.3-8.4-1.3-17.3 0-16 0-16-5.4-16q-5.5 0-5.5-2.7c0-2.3 3-2.8 16.4-2.8s16.4.5 16.4 2.8q0 2.8-6.3 2.7c-6.3 0-6.3 0-6.9 16.8-.4 13.4-1 16.9-3.3 17.3-1.6.3-3.4 0-4-.8m31-1.6c-12.3-6.8-11.4-31 1.3-36.8 13.3-6 24.7 3.2 24.7 20-.1 14.9-13.8 23.7-26 16.8m15-8c4.5-8.4.7-23.7-5.8-23.7-4.7 0-8.7 6.2-8.7 13.1q0 14.1 8.1 14.1c2.5 0 5.3-1.5 6.4-3.5m-354.4-7.5c0-3.2 1-3.6 7.7-3.2 5.6.4 7.9 1.5 8.3 3.8.6 2.7-.8 3.2-7.7 3.2-7.2 0-8.3-.5-8.3-3.8m291.7-53c-10-5.8-18-11.5-17.6-12.6 1.3-4.7 32.3-54.2 34-54.2 1 0 3.8 1.6 6.2 3.4 4.4 3.4 4.4 3.4-9.8 26.5a209 209 0 0 0-13.4 23.6l12.9 7.5a62 62 0 0 1 12.2 8c0 .5-1.4 2.7-3.1 4.8-3.2 3.7-3.2 3.7-21.4-7m-449.4 7.3c-2-2.5-31.3-52.2-31.3-53 0-1.9 30-17.9 35-18.7 18-2.9 30.3 19.7 18.4 33.9-2.7 3.1-8 7.2-11.8 9.2q-10.3 5-5.5 10c.8 1 3.3 4.7 5.5 8.5 4 6.7 4 6.7-1.4 9.5-6.7 3.4-6.6 3.4-8.9.6m4-38c8.4-4.8 10.7-9 8.4-15s-9-7.7-15.8-4c-10.8 5.8-10.7 5.5-5.4 14.5a48 48 0 0 0 5.6 8.4 57 57 0 0 0 7.3-3.9m411.3 11.6c-6.4-2.6-6.8-3-6.3-9.9.4-7.1.4-7.1-10.2-11.7s-10.7-4.5-15.8.3c-4.7 4.5-5.5 4.7-11.7 2.7l-6.5-2.2 5.8-6.6c3.2-3.7 13.9-15.1 23.8-25.4 16.6-17.4 18.4-18.7 23.3-17.6 3 .6 5.6 1.7 6 2.4s.2 16.8-.5 36l-1 34.8zm-4.2-40.6c.7-6.1 1-11.5.5-12s-4.2 3.3-8.4 8.4l-7.7 9 6 2.7c3.4 1.5 6.6 2.7 7.2 2.8s1.7-4.8 2.4-11m-355.4 27c-13-8.7-20.2-35.4-12.9-48.6a34 34 0 0 1 24.4-14.6c19.5 0 37 28 30.8 49-5 16.2-27.5 23.9-42.3 14.2m27.4-11.5c5.9-6 1.8-24.5-7.8-34.9a12.6 12.6 0 0 0-19.3.8c-4.5 5.7-4.6 10-.8 21.2 5.3 15.5 19 21.9 28 12.9m37.5-5.8a651 651 0 0 1-11.3-60c1.8-1.7 23.9-5.7 32-5.8 17 0 25.3 15.8 16.3 30.5-4.1 6.8-5 4.9 10 23.3 4.6 5.7 4.6 5.7.5 6.8-8.9 2.3-11.6 1.1-19.7-9-6.8-8.6-8.6-9.9-12.5-8.9-6.1 1.5-6 1-3.6 12.8 1.7 8.4 1.7 10.6-.3 11.9-4.1 2.6-10.3 1.7-11.4-1.6m23-37.1c4-2 4.3-12.8.6-16q-2.7-2.1-11-.9c-8.6 1.3-8.6 1.3-7.3 9.7.7 4.6 1.6 9 2.2 9.8 1 1.6 10.5 0 15.5-2.6M3558 4317c-3.2-1-8.2-4.5-11.3-8-9.3-10.6-9.8-23.5-1.5-41.6 5.3-11.7 16.9-18.7 27.1-16.6 15.1 3.2 25 12.6 25 23.6 0 4.3-.5 4.9-4 3.9-2.3-.6-5-1-6.3-1-1.1-.2-2.6-2.6-3.2-5.6-2.1-9.1-15.5-12.6-21.8-5.5-8.2 9-11 30.2-4.7 36.4 7.7 7.7 18 6.7 20.1-2 1-3.6.2-4.7-4.5-6.4-4.4-1.6-5.4-2.9-4.9-6.3.3-2.4.8-4.5 1-4.6.1-.3 5.7 1 12.4 2.6 13.8 3.2 13.6 2.8 9 19.3-2.5 8.8-4 11.2-7.6 12.2-6.4 1.7-18 1.6-24.8-.4m-73.5-11.8c-12.3-5.2-14-12.6-11.4-49.6 1.2-16.6 1.2-16.6 7.2-16.6 3.3 0 6.5.8 7 1.7s.3 11.6-.6 23.7c-1 12.1-1.2 23.6-.8 25.3 1.4 5.3 9.2 8 15.4 5.5 6-2.5 6.4-3.5 7.9-24.4 1.9-27.5 2.1-28.1 9.5-28.1 6.4 0 6.4 0 5.1 22.2-1.6 26.8-4.7 35.6-14.1 40.1a30 30 0 0 1-25.2.2m-58.6-4.8a386 386 0 0 1-2.3-27.1l-1.2-21.3-9.7 1c-8.1.9-9.8.6-9.8-1.8 0-1.5-.5-4-1-5.5-1.1-2.8.2-3 38.7-6 15-1 15-1 15 4.4 0 5.3-.4 5.6-10.2 6.8-10.2 1.3-10.2 1.3-9.2 7 .6 3 1.6 15.3 2.2 27 1.3 21.3 1.3 21.3-5.1 21.3-5.8 0-6.5-.5-7.4-5.8m6 808c-125.5-8.7-229.5-54.8-315.3-139.6-92.6-91.4-141.3-209.3-141.3-341.7-.2-164.5 79.1-310 219-402.2 137.8-90.8 319.5-102 469.3-28.6a479 479 0 0 1 269.3 408.5c1.1 24.6 1 27.1-2 29.3s-3 2.5-.3 3.5q3 1.2 3 6.7c0 4.6-.7 5.5-4.4 5.5-4.3 0-7.5 4.2-5.5 7.4.5 1 2.1 1.6 3.6 1.6 3.7 0 6.3 6 4.2 9.7-1 1.6-1.6 4-1.5 5.4q1.4 8.2-3.9 9.5c-3.4 1.2-3.5 1.5-.9 4.4 6.2 6.8 1.2 12.3-10 11.3-2.6-.3-5.8.9-7.1 2.6-2.3 2.6-2 3.5 1.8 6.6 2.4 1.9 5.8 3.1 7.6 2.7 3.8-1 10 7.3 7.4 10-1.9 1.9-7.7.1-7.7-2.3 0-2.5-8.6-2-9.8.6-1.4 3.6-7-4.4-5.8-8.6.4-2 2.2-17.1 4-33.6 1.8-18.4 4-31.2 5.5-33 3.4-3.8 3.1-10.7-.2-10.7-2.3 0-2.8-3.2-2.8-17.7 0-60-17.7-130.8-47.6-190.4-56.2-111.7-159.8-198.8-277.7-233a392 392 0 0 0-114.6-18.2c-129.3-4-250 45.4-340.8 139.6a452.7 452.7 0 0 0-22 605 460 460 0 0 0 251.1 153.6c37.2 8.3 63 10.6 108 9.6 58-1.3 98-8.6 144.3-26 11.7-4.6 12.5-4.7 14.7-1.6 2.7 3.7 6.6 2.1 6.6-3 0-4.1 9.7-9.5 14.5-8 4.5 1.4 6.1 7 3.6 11.8-2.3 4.4-.9 7.6 3.1 6.9 1.6-.3 3.2.3 3.6 1.3.7 2.3-20.2 10.8-22.7 9.3-1-.6-2.3.1-2.8 1.6s-2.5 2.7-4.4 2.7c-1.8 0-4 .7-5 1.6-2.9 2.7-40.3 14.2-62.7 19.1-27.5 6.1-41 7.7-42.6 4.9-1-1.6-2.5-1.4-5.7.8-7.2 4.6-46.5 7.3-77.1 5.2m157.5-32.5c1.5-3.8-1-6-3-2.5q-3.5 5.3 0 5.4c1 0 2.4-1.3 3-2.9m326-417c0-2-1.2-3.6-2.8-3.6-2.7 0-3.6 3.8-1.5 6 2.4 2.3 4.3 1.2 4.3-2.5m8-35.7c3.7-1.4 1.9-4.3-2.7-4.3-1.9 0-3.5 1.2-3.5 2.7 0 3 1.7 3.4 6.2 1.6M3421 5066a441 441 0 0 1-382.3-298.3 439 439 0 0 1 189.6-515.1 451 451 0 0 1 153.1-57.5 591 591 0 0 1 118-3.5 442 442 0 0 1 348.7 244.7 413 413 0 0 1 44.1 194.4c-.2 39.7-1 44.9-7.5 42.5-4.3-1.6-4.3-1.6-3-25.7 2.2-42.6-3.9-94.4-16.2-137-55.7-193-242-324.2-439.6-309.7-77 5.7-143 28.3-207.4 71-102.9 68.4-168.3 172-188.5 299-3.7 22.8-3.1 93.4.8 118.9a429 429 0 0 0 129.3 248.7 424 424 0 0 0 218.8 111.2c55.9 9.5 97.2 9.5 152 0 10.9-1.9 19.9-3.3 20-3l2.4 4.5c2.6 4.6 3 4.4-11.4 7.5a509 509 0 0 1-121 7.4m251-13.9q-2.5-2.7-8-2c-5.4.8-10.4-1.9-10.4-5.4q.2-8.9 16-16.7c10.4-5.2 11.3-5.3 11.3-2 0 4.2 2.1 5.8 5.3 3.8 1.9-1.2 1.9-2.4.2-5.4-1.7-3.3-1.6-3.9 1.7-3.9 2 0 3.7-1 3.7-2.4s5.5-6 12.3-10.6c10-6.7 13.6-8 19.5-7.7 10.2.6 10 .5 10 3.5q0 2.8-5.3 2.8c-6.3 0-8.6 2.6-5.5 6.4 1.7 2 1.5 2.8-.8 3.7-4.1 1.5-3.7 4.3.6 4.3 7.5 0 5 3.6-8 11.7a80 80 0 0 1-15 8.2c-4.4-.8-7.5.5-8.3 3.6-.5 2-4.2 5.2-8.3 7.3-8.7 4.4-7.8 4.4-11 .8m-96.5-7.7c0-5 .8-5.6 15-10.4 8.3-2.7 18.5-6.4 22.8-8.3 6.8-2.9 8.3-3 10.5-.7 5.6 5.5 3.4 7-24.6 17.3-22.5 8.2-23.7 8.4-23.7 2m-121.8-12.3c0-6.4-.6-7.2-7-10-7-2.8-7.2-2.8-11.8 1.8-3.5 3.5-5.3 4.2-6.8 2.7-1.6-1.6-1-3.2 2.6-6.5 4.8-4.4 4.8-4.4 1.7-12-2.8-6.3-4.1-7.4-9.6-7.8-8.6-.8-8.8-6-.3-6.2 5.3-.1 6.4-1 9.5-8 3.6-7.8 3.6-7.8-1.3-12.3-3.5-3.2-4.2-5-2.6-6.4 1.5-1.6 3.2-1 6.8 2.6 4.6 4.6 4.8 4.7 11.7 1.7 6.4-2.7 7-3.6 7.1-9.8q-.1-7 2.8-6.8c2.8 0 3.2 1.5 2.7 9.6q-.4 5.1 2.6 5a26 26 0 0 1 8.3 2.7c5 2.7 5.4 2.6 8.3-1.8 3-4.7 8-6.2 8-2.4 0 1.2-1.7 4-3.8 6.3-3.8 4-3.8 4.4-1 10.4 1.6 3.5 3 7 3 7.8s2.6 1.5 5.8 1.5c4.2 0 6.1 1 6.6 3.2.4 2.5-.7 3.2-5.6 3.2-5.4 0-6.5.8-9.4 7.3-3.2 7.4-3.2 7.5.6 11.6 2 2.2 3.9 5 3.9 6.2 0 3.8-5.4 2.3-8.4-2.3-2.8-4.3-3.3-4.4-8.1-1.9a24 24 0 0 1-8 2.7c-2 0-2.6 1.8-2.3 6.7.3 5.2-.3 7-2.9 7.4-2.5.6-3-.6-3-6.2m0-22c0-6.7 0-6.7-4.7-2-5.1 5.1-4.6 8.9 1.2 8.9 2.8 0 3.5-1.3 3.5-6.8m15.2 5.6c1.3-1.3-5.8-9.6-8.2-9.6-.9 0-1.5 2.4-1.5 5.4 0 4.5.7 5.5 4.2 5.5 2.4 0 4.8-.7 5.5-1.3m-24.2-10.1c4.5-5.4 4.4-6.9-.5-6.8q-9.4-.1-6.7 6.8c.9 2.2 2.1 4 2.7 4s2.7-1.8 4.5-4m31.5 1.2c2.3-6 1.2-8-4.3-8q-9.2 0-2.5 7.5c3.8 4 5.4 4.2 6.8.5m-15.2-7.2c2.6-3-.3-8.1-4.6-8.1-3.3 0-4.9 5.5-2.5 8.4 2.6 3.2 4.3 3.2 7-.3m-13-9.3c-4.7-5.7-8.8-6.5-10.5-2-1.3 3.6-.9 4.2 4.2 5q10.6 2.1 6.4-3m29.3.6c0-1.2-.8-3.3-1.7-4.9-1.4-2.2-2.4-2-6.3 1.7-2.5 2.4-4.2 5-3.8 5.6 1.3 2 11.9-.2 11.8-2.4m-23.2-9c-.6-5.2-1.4-6.1-4.2-5.5-5.5 1.5-6 4-1.5 8.8 5 5.5 6.6 4.6 5.7-3.3m11.9-4.3c-6.3-3.5-6.8-3-6.8 5.2 0 7.5 0 7.5 5.4 2.3s5.5-5.2 1.4-7.5m164 49.5c0-3.6 3.5-5.6 5.9-3.3q1.8 1.8-2 4c-3.1 1.6-4 1.4-4-.7m6.6-6.2c-2.9-3.2-2.7-3.6 3-6.4 5.6-2.7 5.9-2.7 6.5.9 1.4 8.5-3.9 11.6-9.5 5.5"/></svg>